/* XPM */
static const char *cesar_c_xpm[]={
"12 17 4 1",
". c None",
"b c None",
"a c #006000",
"# c #00ff00",
".##########.",
"#.########.a",
"##.######.aa",
"###......aaa",
"###......aaa",
"###......aaa",
"###......aaa",
"##.aaaaaa.aa",
"bbaaaaaaaa..",
"##.aaaaaa.aa",
"###......aaa",
"###......aaa",
"###......aaa",
"###......aaa",
"##.######.aa",
"#.########.a",
".##########."};
