/* XPM */
static const char *cesar_2_xpm[]={
"12 17 4 1",
". c None",
"b c None",
"a c #006000",
"# c #00ff00",
".##########.",
"a.########.#",
"aa.######.##",
"aaabbbbb.###",
"aaabbbbb.###",
"aaabbbbb.###",
"aaabbbbb.###",
"aa.######.##",
"..########..",
"##.######.aa",
"###......aaa",
"###......aaa",
"###......aaa",
"###......aaa",
"##.######.aa",
"#.########.a",
".##########."};
