/* XPM */
static const char *cesar_1_xpm[]={
"12 17 4 1",
"a c None",
". c None",
"# c #006000",
"b c #00ff00",
".##########a",
"#.########ab",
"##.######abb",
"###.....abbb",
"###.....abbb",
"###.....abbb",
"###.....abbb",
"##.######abb",
"..########aa",
"##.######abb",
"###.....abbb",
"###.....abbb",
"###.....abbb",
"###.....abbb",
"##.######abb",
"#.########ab",
".##########a"};
