/* XPM */
static const char *cesar_null_xpm[]={
"12 17 3 1",
"a c None",
". c None",
"# c #006000",
".##########a",
"#.########a#",
"##.######a##",
"###.....a###",
"###.....a###",
"###.....a###",
"###.....a###",
"##.######a##",
"..########aa",
"##.######a##",
"###.....a###",
"###.....a###",
"###.....a###",
"###.....a###",
"##.######a##",
"#.########a#",
".##########a"};
