/* XPM */
static const char *cesar_4_xpm[]={
"12 17 4 1",
"a c None",
". c None",
"# c #006000",
"b c #00ff00",
".##########a",
"ba########ab",
"bba######abb",
"bbbaaaaaabbb",
"bbbaaaaaabbb",
"bbbaaaaaabbb",
"bbbaaaaaabbb",
"bbabbbbbbabb",
"aabbbbbbbbaa",
"##abbbbbbabb",
"###.....abbb",
"###.....abbb",
"###.....abbb",
"###.....abbb",
"##.######abb",
"#.########ab",
".##########a"};
