/* XPM */
static const char *cesar_b_xpm[]={
"12 17 4 1",
"a c None",
". c None",
"# c #006000",
"b c #00ff00",
".##########a",
"ba########a#",
"bba######a##",
"bbbaaaaaa###",
"bbbaaaaaa###",
"bbbaaaaaa###",
"bbbaaaaaa###",
"bbabbbbbba##",
"aabbbbbbbbaa",
"bbabbbbbbabb",
"bbbaaaaaabbb",
"bbbaaaaaabbb",
"bbbaaaaaabbb",
"bbbaaaaaabbb",
"bbabbbbbbabb",
"babbbbbbbbab",
"abbbbbbbbbba"};
