/* XPM */
static const char *cesar_6_xpm[]={
"12 17 3 1",
". c None",
"a c #006000",
"# c #00ff00",
".##########.",
"#.########.a",
"##.######.aa",
"###......aaa",
"###......aaa",
"###......aaa",
"###......aaa",
"##.######.aa",
"..########..",
"##.######.##",
"###......###",
"###......###",
"###......###",
"###......###",
"##.######.##",
"#.########.#",
".##########."};
