/* XPM */
static const char *cesar_5_xpm[]={
"12 17 4 1",
". c None",
"b c None",
"a c #006000",
"# c #00ff00",
".##########.",
"#.########.a",
"##.######.aa",
"###......aaa",
"###......aaa",
"###......aaa",
"###......aaa",
"##.######.aa",
"..########..",
"aa.######.##",
"aaabbbbb.###",
"aaabbbbb.###",
"aaabbbbb.###",
"aaabbbbb.###",
"aa.######.##",
"a.########.#",
".##########."};
