/* XPM */
static const char *cesar_d_xpm[]={
"12 17 4 1",
"a c None",
". c None",
"# c #006000",
"b c #00ff00",
".##########a",
"#.########ab",
"##.######abb",
"###.....abbb",
"###.....abbb",
"###.....abbb",
"###.....abbb",
"##abbbbbbabb",
"aabbbbbbbbaa",
"bbabbbbbbabb",
"bbbaaaaaabbb",
"bbbaaaaaabbb",
"bbbaaaaaabbb",
"bbbaaaaaabbb",
"bbabbbbbbabb",
"babbbbbbbbab",
"abbbbbbbbbba"};
