/* XPM */
static const char *computer_xpm[]={
"22 31 12 1",
". c None",
"# c #000000",
"j c #4a4a4a",
"h c #7a7a7a",
"d c #868686",
"b c #aaaaaa",
"i c #aaff00",
"c c #c0c0c0",
"g c #cecece",
"a c #dadada",
"e c #f2f2f2",
"f c #ffffff",
"...############.......",
"..#abbbccbbbbbd#......",
".#eccccccccccccb#.....",
"#ffffeeffeeaaaggg#....",
"#aaaeeeaagcbbchbb#....",
"#aadddddddddbchbb#....",
"#aaaagefegcbbchbb#....",
"#bbbbbbbbdddddhbb#....",
"#aaaeeeaggcbbchbb#....",
"#aaa#######bcchbb#....",
"#aaaeeffeccbbchbb#....",
"#bbbbbbbbdddddhbb#....",
"#aaaeeeaggcbbchbb#....",
"#aaaaeaaggcbcchbb#....",
"#aaaeeeaggcbbchbb#....",
"#bbbbbbbbdddddhbb#....",
"#aaaeeeaggcbbchbb#....",
"#aaaaebcbbcbcchbb#....",
"#aaaeeeaggcbbchbb#....",
"#aaaaeaaggcbcchbb#....",
"#aaaeeeaggcbbchbb#....",
"#aaaaeaaggcbcchbb#....",
"#aaaeeeaggcbbchbb#....",
"#aaaaeaaggcbcchbb#....",
"#aaaeeeaggcbbchib#....",
"#aaaaeaaggcbcchdb#j...",
"#aaaeeeaggcbbchcd#jj..",
"#aaaaegbcccbcchdb#jjj.",
"#aaaeeeaggcbbchbb#jjjj",
"#aaaaeaaggcbcchbb#jjjj",
".################jjj.."};
