/* XPM */
static const char *config_xpm[]={
"16 16 5 1",
"b c None",
". c #000000",
"# c #7f7f7f",
"a c #bfbfbf",
"e c #d4d0c8",
".#a...##.bbbbbbb",
".a.#a#.#...bbbbb",
"#a.a.#.###.bbbbb",
".a.###.#...bbbb.",
".##...##.bb#.#b.",
"..#####..#b.#...",
"#...#...#.b#..#a",
".#b.#.b#.#bb.#a.",
"bbb...bbbb...a.#",
"..bbbbbbbb.##a.a",
"#.b#.#bbbb...a.#",
"#...#.bbbbbb.##.",
"aa#..#bbbbb#..##",
"..##.bbbbbb.#...",
"a#.#...bbbb#.#b.",
"e#.###.bbbbbbbb."};
