/* XPM */
static const char *light_off_xpm[]={
"15 15 7 1",
". c None",
"c c #000000",
"e c #004000",
"f c #008000",
"a c #404040",
"# c #606040",
"d c #808000",
".....#aaa#.....",
"...#ccccccc#...",
"..#ccccccccc#..",
".#ccccccccccc#.",
".ccccddccccccc.",
"#ccccddccccccc#",
"ccccccccccccccc",
"ccccccccccccccc",
"ccccccccccccccc",
"cccececececfccc",
".cceeeeeeefecc.",
".#ccefefeffcc#.",
"..#ccefffecc#..",
"...#ccccccc#...",
".....#aca#....."};
