/* XPM */
static const char *light_on_xpm[]={
"15 15 11 1",
". c None",
"c c #000000",
"d c #006000",
"e c #008000",
"g c #00a000",
"h c #00c000",
"j c #00ff00",
"a c #404040",
"# c #606040",
"i c #a0ff80",
"f c #ffff80",
".....#aaa#.....",
"...#ccdddcc#...",
"..#cdeeeeedc#..",
".#cdeeeeeeedc#.",
".cdeeffeeeeedc.",
"#cegeffegegeec#",
"cdgggggggggggdc",
"cdghghghhhghgdc",
"cdhhhhhhhhhhhdc",
"cchhhhhhhhhihcc",
".cdhhhhhhhihdc.",
".#cdhjhjhijdc#.",
"..#cdhjjjhdc#..",
"...#ccdddcc#...",
".....#aca#....."};
