/* XPM */
static const char *tools_xpm[]={
"16 16 8 1",
". c None",
"a c #000000",
"b c #7f7f7f",
"e c #800000",
"# c #808000",
"c c #d4d0c8",
"f c #ff0000",
"d c #ffffff",
"..##.aaaaa......",
"..#aaaab...bab..",
"..aaaaa....bab..",
"aaaaaa#....bab..",
"acaaa###....a...",
".aca.a###...a...",
"..aa..a###..a...",
".......a###.a...",
"..aaab..a###a...",
"..badab..aeeeee.",
"abccada...fffff.",
"aaccada....fef#.",
"adaadda....fef##",
"badddda....fef##",
".baaadda...fefa#",
".....adda..fef.a"};
